<?xml version="1.0" encoding="utf-8"?>
<!-- Generator: Adobe Illustrator 19.0.0, SVG Export Plug-In . SVG Version: 6.00 Build 0)  -->
<svg version="1.1" id="Layer_1" xmlns="http://www.w3.org/2000/svg" xmlns:xlink="http://www.w3.org/1999/xlink" x="0px" y="0px"
	 viewBox="0 0 91.6 87.1" style="enable-background:new 0 0 91.6 87.1;" xml:space="preserve">
<style type="text/css">
	.st0{fill:#B0AFB0;stroke:#B0AFB0;stroke-miterlimit:10;}
	.st1{fill:none;stroke:#B0AFB0;stroke-width:3;stroke-miterlimit:10;}
	.st2{fill:#484748;stroke:#484748;stroke-miterlimit:10;}
	.st3{fill:none;stroke:#484748;stroke-width:3;stroke-miterlimit:10;}
</style>
<g id="face">
	<path id="XMLID_68_" class="st0" d="M5.5,12c2.7-4.2,7.4-7,12.8-7s10.1,2.8,12.8,7H34c-3-5.6-8.9-9.5-15.7-9.5S5.6,6.4,2.6,12H5.5z
		"/>
	<path id="XMLID_67_" class="st1" d="M31.3,47.2c0,0.4,0,0.8,0,1.3c0,20.5,6.3,37.2,14,37.2c7.7,0,14-16.6,14-37.2
		c0-0.4,0-0.8,0-1.3H31.3z"/>
	<path id="XMLID_66_" class="st0" d="M62.2,12c2.7-4.2,7.4-7,12.8-7s10.1,2.8,12.8,7h2.9c-3-5.6-8.9-9.5-15.7-9.5S62.3,6.4,59.3,12
		H62.2z"/>
</g>
<g id="face_shadow">
	<path id="XMLID_71_" class="st2" d="M3.7,10c2.7-4.2,7.4-7,12.8-7s10.1,2.8,12.8,7h2.9c-3-5.6-8.9-9.5-15.7-9.5S3.8,4.3,0.8,10H3.7
		z"/>
	<path id="XMLID_70_" class="st3" d="M29.6,45.1c0,0.4,0,0.8,0,1.3c0,20.5,6.3,37.2,14,37.2c7.7,0,14-16.6,14-37.2
		c0-0.4,0-0.8,0-1.3H29.6z"/>
	<path id="XMLID_69_" class="st2" d="M60.5,10c2.7-4.2,7.4-7,12.8-7s10.1,2.8,12.8,7H89c-3-5.6-8.9-9.5-15.7-9.5S60.5,4.3,57.5,10
		H60.5z"/>
</g>
</svg>
