<?xml version="1.0" encoding="utf-8"?>
<!-- Generator: Adobe Illustrator 19.0.0, SVG Export Plug-In . SVG Version: 6.00 Build 0)  -->
<svg version="1.1" id="Layer_1" xmlns="http://www.w3.org/2000/svg" xmlns:xlink="http://www.w3.org/1999/xlink" x="0px" y="0px"
	 viewBox="0 0 136.7 136.7" style="enable-background:new 0 0 136.7 136.7;" xml:space="preserve">
<style type="text/css">
	.st0{fill:#B0AFB0;stroke:#B0AFB0;stroke-miterlimit:10;}
	.st1{fill:none;stroke:#B0AFB0;stroke-width:3;stroke-miterlimit:10;}
	.st2{fill:#484748;stroke:#484748;stroke-miterlimit:10;}
	.st3{fill:none;stroke:#484748;stroke-width:3;stroke-miterlimit:10;}
	.st4{fill:none;}
</style>
<g id="XMLID_73_">
	<path id="XMLID_68_" class="st0" d="M30,37.9c2.7-4.2,7.4-7,12.8-7s10.1,2.8,12.8,7h2.9c-3-5.6-8.9-9.5-15.7-9.5
		s-12.7,3.8-15.7,9.5H30z"/>
	<path id="XMLID_67_" class="st1" d="M55.8,73.1c0,0.4,0,0.8,0,1.3c0,20.5,6.3,37.2,14,37.2c7.7,0,14-16.6,14-37.2
		c0-0.4,0-0.8,0-1.3H55.8z"/>
	<path id="XMLID_66_" class="st0" d="M86.7,37.9c2.7-4.2,7.4-7,12.8-7c5.4,0,10.1,2.8,12.8,7h2.9c-3-5.6-8.9-9.5-15.7-9.5
		c-6.8,0-12.7,3.8-15.7,9.5H86.7z"/>
</g>
<g id="XMLID_72_">
	<path id="XMLID_71_" class="st2" d="M27.2,36.3c2.7-4.2,7.4-7,12.8-7s10.1,2.8,12.8,7h2.9c-3-5.6-8.9-9.5-15.7-9.5
		s-12.7,3.8-15.7,9.5H27.2z"/>
	<path id="XMLID_70_" class="st3" d="M53,71.4c0,0.4,0,0.8,0,1.3c0,20.5,6.3,37.2,14,37.2c7.7,0,14-16.6,14-37.2c0-0.4,0-0.8,0-1.3
		H53z"/>
	<path id="XMLID_69_" class="st2" d="M83.9,36.3c2.7-4.2,7.4-7,12.8-7c5.4,0,10.1,2.8,12.8,7h2.9c-3-5.6-8.9-9.5-15.7-9.5
		c-6.8,0-12.7,3.8-15.7,9.5H83.9z"/>
</g>
<rect id="XMLID_1_" class="st4" width="136.7" height="136.7"/>
</svg>
